<svg id="Layer_1" data-name="Layer 1" xmlns="http://www.w3.org/2000/svg" viewBox="0 0 101 101"><title>log_Artboard 2 copy 11</title><path d="M83.5,16h-66A1.5,1.5,0,0,0,16,17.5v67A1.5,1.5,0,0,0,17.5,86h66A1.5,1.5,0,0,0,85,84.5v-67A1.5,1.5,0,0,0,83.5,16ZM82,83H19V19H82Z"/><path d="M42.81,44.11,41.67,51a2.32,2.32,0,0,0,.93,2.28,2.24,2.24,0,0,0,2.37.16l6-3.19,5.71,3.14a2.24,2.24,0,0,0,2.39-.13A2.32,2.32,0,0,0,60,51l-1.13-6.9,4.78-4.88a2.33,2.33,0,0,0,.55-2.38,2.28,2.28,0,0,0-1.82-1.55l-6.55-1-2.94-6.24a2.27,2.27,0,0,0-4.12,0h0l-2.94,6.24-6.55,1a2.28,2.28,0,0,0-1.83,1.55A2.33,2.33,0,0,0,38,39.23Zm4.29-7a1.5,1.5,0,0,0,1.13-.84l2.63-5.58,2.63,5.58a1.5,1.5,0,0,0,1.13.84l6,.92-4.4,4.49a1.5,1.5,0,0,0-.41,1.29l1,6.25-5.12-2.82a1.49,1.49,0,0,0-1.42,0l-5.45,2.89,1-6.31a1.5,1.5,0,0,0-.41-1.29l-4.4-4.49Z"/><path d="M58.5,64h-16a1.5,1.5,0,0,0,0,3h16a1.5,1.5,0,0,0,0-3Z"/><path d="M58.5,73h-16a1.5,1.5,0,0,0,0,3h16a1.5,1.5,0,0,0,0-3Z"/></svg>