<?xml version="1.0" encoding="iso-8859-1"?>
<!-- Generator: Adobe Illustrator 21.1.0, SVG Export Plug-In . SVG Version: 6.00 Build 0)  -->
<svg version="1.1" id="Layer_1" xmlns="http://www.w3.org/2000/svg" xmlns:xlink="http://www.w3.org/1999/xlink" x="0px" y="0px"
	 viewBox="0 0 100.355 100.352" style="enable-background:new 0 0 100.355 100.352;" xml:space="preserve">
<g>
	<path d="M40.823,37.21c-9.628,0-17.461,7.833-17.461,17.461s7.833,17.461,17.461,17.461c9.628,0,17.461-7.833,17.461-17.461
		S50.451,37.21,40.823,37.21z M40.823,69.132c-7.974,0-14.461-6.487-14.461-14.461S32.849,40.21,40.823,40.21
		c7.974,0,14.461,6.487,14.461,14.461S48.797,69.132,40.823,69.132z"/>
	<path d="M49.483,53.169c-3.947,0-7.158-3.211-7.158-7.158c0-0.829-0.671-1.5-1.5-1.5c-5.601,0-10.158,4.557-10.158,10.158
		c0,5.604,4.557,10.162,10.158,10.162s10.158-4.559,10.158-10.162C50.983,53.841,50.312,53.169,49.483,53.169z M40.825,61.831
		c-3.947,0-7.158-3.213-7.158-7.162c0-3.479,2.495-6.386,5.789-7.027c0.697,4.297,4.099,7.7,8.396,8.396
		C47.211,59.335,44.304,61.831,40.825,61.831z"/>
	<path d="M96.71,38.087c-0.774-0.281-1.639,0.118-1.922,0.896C91.542,47.904,81.292,52.24,78,53.427
		c-1.155-1.421-3.698-4.378-7.32-7.644c4.453-1.74,14.113-6.482,17.522-15.848c0.283-0.779-0.118-1.64-0.896-1.923
		c-0.774-0.283-1.639,0.118-1.922,0.896C81.932,38.39,70.57,42.692,68.064,43.538c-2.569-2.095-5.171-3.891-7.782-5.386
		c4.038-2.649,12.416-9.233,13.836-19.027c0.119-0.82-0.449-1.581-1.27-1.7c-0.818-0.122-1.58,0.45-1.699,1.269
		c-1.443,9.955-11.632,16.473-13.953,17.838c-3.571-1.711-7.138-2.845-10.635-3.37c2.714-2.156,6.242-5.84,6.964-10.844
		c0.118-0.82-0.45-1.581-1.27-1.699c-0.827-0.124-1.581,0.45-1.699,1.27c-0.96,6.65-8.581,10.778-8.658,10.819
		c-0.064,0.034-0.12,0.077-0.177,0.118C19.578,33.06,3.313,53.416,2.628,54.288c-0.024,0.03-0.039,0.063-0.06,0.094
		c-0.03,0.045-0.061,0.089-0.086,0.136c-0.024,0.045-0.041,0.091-0.059,0.137c-0.017,0.043-0.036,0.086-0.05,0.13
		c-0.015,0.05-0.024,0.101-0.033,0.153c-0.008,0.044-0.018,0.087-0.022,0.131c-0.005,0.05-0.004,0.099-0.004,0.149
		c0,0.047-0.001,0.094,0.003,0.14c0.005,0.047,0.015,0.093,0.024,0.14c0.009,0.048,0.017,0.097,0.031,0.144
		c0.014,0.047,0.034,0.092,0.053,0.138c0.018,0.043,0.034,0.087,0.056,0.129c0.026,0.05,0.06,0.097,0.092,0.145
		c0.019,0.028,0.033,0.059,0.055,0.086c0.689,0.877,17.135,21.47,39.473,21.47c3.812,0,7.745-0.773,11.709-2.266
		c1.404,0.528,5.759,2.437,7.069,6.233c0.215,0.621,0.796,1.011,1.418,1.011c0.162,0,0.327-0.026,0.489-0.082
		c0.783-0.271,1.199-1.124,0.929-1.907c-1.169-3.388-3.979-5.57-6.24-6.84c2.547-1.242,5.096-2.772,7.622-4.592
		c1.829,0.648,9.97,3.877,12.352,10.755c0.214,0.621,0.795,1.01,1.417,1.01c0.163,0,0.328-0.026,0.49-0.083
		c0.783-0.271,1.198-1.125,0.927-1.907c-2.326-6.719-8.892-10.375-12.406-11.902c0.09-0.073,0.182-0.141,0.272-0.215
		c2.206-1.806,4.11-3.598,5.677-5.191c0.765,0.201,10.276,2.834,13.269,10.122c0.238,0.58,0.798,0.931,1.389,0.931
		c0.189,0,0.383-0.036,0.568-0.112c0.767-0.314,1.133-1.191,0.818-1.957c-2.883-7.021-10.407-10.282-13.752-11.42
		c1.145-1.277,1.938-2.255,2.32-2.741C81.4,55.475,93.67,50.828,97.606,40.01C97.89,39.231,97.488,38.37,96.71,38.087z
		 M42.101,74.612c-18.264,0-32.871-15.419-36.334-19.398c3.46-3.981,18.044-19.398,36.334-19.398c16.436,0,30.24,15.47,33.48,19.399
		C72.341,59.144,58.538,74.612,42.101,74.612z"/>
</g>
</svg>
