<svg id="Слой_1" data-name="Слой 1" xmlns="http://www.w3.org/2000/svg" viewBox="0 0 101 101"><title>log_Монтажная область 16</title><path d="M85.5,28H76.41a1.49,1.49,0,0,0-.07-.19l-4.65-9A1.5,1.5,0,0,0,70.35,18H49.65a1.5,1.5,0,0,0-1.33.81l-4.65,9a1.49,1.49,0,0,0-.07.19H15.5A6.51,6.51,0,0,0,9,34.5v40A6.51,6.51,0,0,0,15.5,81h70A6.51,6.51,0,0,0,92,74.5v-40A6.51,6.51,0,0,0,85.5,28ZM50.56,21H69.44l3.61,7H46.95ZM12,74.5v-40A3.5,3.5,0,0,1,15.5,31H27V78H15.5A3.5,3.5,0,0,1,12,74.5Zm77,0A3.5,3.5,0,0,1,85.5,78H30V31H85.5A3.5,3.5,0,0,1,89,34.5Z"/><path d="M60,36A19,19,0,1,0,79,55,19,19,0,0,0,60,36Zm0,35A16,16,0,1,1,76,55,16,16,0,0,1,60,71Z"/><path d="M60,44A11,11,0,1,0,71,55,11,11,0,0,0,60,44Zm0,19a8,8,0,1,1,8-8A8,8,0,0,1,60,63Z"/><path d="M15.5,23h9a1.5,1.5,0,0,0,0-3h-9a1.5,1.5,0,0,0,0,3Z"/></svg>