<?xml version="1.0" encoding="iso-8859-1"?>
<!-- Generator: Adobe Illustrator 21.1.0, SVG Export Plug-In . SVG Version: 6.00 Build 0)  -->
<svg version="1.1" id="Layer_1" xmlns="http://www.w3.org/2000/svg" xmlns:xlink="http://www.w3.org/1999/xlink" x="0px" y="0px"
	 viewBox="0 0 100.75 100.75" style="enable-background:new 0 0 100.75 100.75;" xml:space="preserve">
<g>
	<path d="M90.356,19.246H61.81c-0.003,0-0.006-0.001-0.01-0.001s-0.006,0.001-0.01,0.001H11.633c-2.304,0-4.178,1.855-4.178,4.136
		v56.045c0,2.279,1.874,4.134,4.178,4.134h78.724c2.309,0,4.188-1.854,4.188-4.134V23.382
		C94.544,21.102,92.665,19.246,90.356,19.246z M91.544,23.382v23.043H73.19c1.28-0.864,2.554-1.876,3.77-3.05
		c3.853-3.715,6.225-8.026,6.188-11.252c-0.016-1.435-0.507-2.638-1.417-3.478c-2.986-2.764-9.542-0.69-15.247,4.819
		c-1.226,1.185-2.286,2.435-3.185,3.693V22.246h27.057C91.012,22.246,91.544,22.755,91.544,23.382z M58.527,46.422
		c-0.051,0.001-0.101,0.002-0.152,0.002c-2.141,0-5.915-1.596-9.655-5.208c-3.67-3.54-5.292-7.101-5.271-9.06
		c0.007-0.596,0.159-1.036,0.453-1.308c1.287-1.19,6.261,0.078,11.128,4.775c3.595,3.472,5.237,7.008,5.27,8.971v1.832h-1.743
		C58.547,46.425,58.537,46.422,58.527,46.422z M65.113,46.422c-0.012,0-0.024,0.003-0.036,0.002H63.3v-1.84
		c0.038-1.966,1.68-5.495,5.269-8.962c4.863-4.696,9.838-5.966,11.128-4.773c0.293,0.271,0.445,0.711,0.452,1.307
		c0.021,1.959-1.6,5.52-5.271,9.061c-3.739,3.612-7.513,5.208-9.652,5.208C65.188,46.424,65.15,46.423,65.113,46.422z
		 M11.633,22.246H60.3v14.912c-0.899-1.258-1.959-2.509-3.186-3.695c-5.709-5.508-12.264-7.58-15.248-4.819
		c-0.911,0.841-1.401,2.044-1.417,3.479c-0.035,3.226,2.336,7.538,6.187,11.251c1.216,1.175,2.491,2.187,3.771,3.051H10.455V23.382
		C10.455,22.755,10.983,22.246,11.633,22.246z M10.455,79.427V49.425h47.543l-8.609,8.047c-0.605,0.565-0.637,1.515-0.071,2.12
		c0.295,0.315,0.695,0.476,1.096,0.476c0.367,0,0.735-0.134,1.024-0.404L60.3,51.38v29.181H11.633
		C10.983,80.561,10.455,80.052,10.455,79.427z M90.356,80.561H63.3V51.38l8.86,8.283c0.289,0.271,0.657,0.404,1.024,0.404
		c0.4,0,0.801-0.16,1.096-0.476c0.565-0.605,0.534-1.555-0.071-2.12l-8.608-8.047h25.943v30.002
		C91.544,80.052,91.012,80.561,90.356,80.561z"/>
	<path d="M18.616,63.016h14.395c0.829,0,1.5-0.672,1.5-1.5s-0.671-1.5-1.5-1.5H18.616c-0.829,0-1.5,0.672-1.5,1.5
		S17.788,63.016,18.616,63.016z"/>
	<path d="M41.953,67.34H18.616c-0.829,0-1.5,0.672-1.5,1.5s0.671,1.5,1.5,1.5h23.337c0.829,0,1.5-0.672,1.5-1.5
		S42.782,67.34,41.953,67.34z"/>
</g>
</svg>
