<?xml version="1.0" encoding="iso-8859-1"?>
<!-- Generator: Adobe Illustrator 21.0.2, SVG Export Plug-In . SVG Version: 6.00 Build 0)  -->
<svg version="1.1" id="Layer_1" xmlns="http://www.w3.org/2000/svg" xmlns:xlink="http://www.w3.org/1999/xlink" x="0px" y="0px"
	 viewBox="0 0 100.354 100.352" style="enable-background:new 0 0 100.354 100.352;" xml:space="preserve">
<g>
	<path d="M86.854,16.297H13.148c-0.829,0-1.5,0.671-1.5,1.5v64.404c0,0.828,0.671,1.5,1.5,1.5h73.706c0.828,0,1.5-0.672,1.5-1.5
		V17.797C88.354,16.968,87.682,16.297,86.854,16.297z M85.354,19.297V33.86H14.648V19.297H85.354z M14.648,80.701V36.86h70.706
		v43.841H14.648z"/>
	<path d="M20.728,27.68h5.534c0.829,0,1.5-0.671,1.5-1.5s-0.671-1.5-1.5-1.5h-5.534c-0.829,0-1.5,0.671-1.5,1.5
		S19.899,27.68,20.728,27.68z"/>
	<path d="M32.589,27.68h5.535c0.829,0,1.5-0.671,1.5-1.5s-0.671-1.5-1.5-1.5h-5.535c-0.829,0-1.5,0.671-1.5,1.5
		S31.76,27.68,32.589,27.68z"/>
	<path d="M62.572,57.448L43.23,44.182c-0.46-0.316-1.056-0.35-1.548-0.09c-0.492,0.259-0.801,0.771-0.801,1.327v25.013
		c0,0.542,0.292,1.042,0.765,1.308c0.229,0.128,0.482,0.192,0.735,0.192c0.27,0,0.54-0.073,0.779-0.218l19.341-11.746
		c0.436-0.265,0.707-0.731,0.721-1.24C63.237,58.218,62.992,57.736,62.572,57.448z M43.882,67.766V48.267L58.96,58.609
		L43.882,67.766z"/>
</g>
</svg>
